# xmcd CD database file
#
# Track frame offsets:
#	150
#	15040
#	27680
#	40987
#	59875
#	68865
#	88472
#	102912
#	122437
#	134875
#	153190
#
# Disc length: 2381 seconds
#
# Revision: 0
# Processed by: cddbd v1.5PL3 Copyright (c) Steve Scherf et al.
# Submitted via: CDex 1.50
#
DISCID=9b094b0b
DTITLE=THE MODS - LOOK OUT
DYEAR=1982
DGENRE=Rock
TTITLE0=I WANT YOU BABY TONIGHT
TTITLE1=GO STOP BOOGIE
TTITLE2=LET'S GO GARAGE
TTITLE3=T-O-K-Y-O アイランド
TTITLE4=(You Make Me)FEEL SO GOOD
TTITLE5=HELL TO HEAVEN
TTITLE6=SHE'S THE C
TTITLE7=のら猫ROCK
TTITLE8=HIT THE TOWN
TTITLE9=ONE BOY (俺達どこへいこう...)
TTITLE10=STAR SUGAR STAR
EXTD=YEAR: 1982
EXTT0=
EXTT1=
EXTT2=
EXTT3=
EXTT4=
EXTT5=
EXTT6=
EXTT7=
EXTT8=
EXTT9=
EXTT10=
PLAYORDER=
